<?xml version="1.0" encoding="utf-8"?>
<!-- Generator: Adobe Illustrator 16.0.0, SVG Export Plug-In . SVG Version: 6.00 Build 0)  -->
<!DOCTYPE svg PUBLIC "-//W3C//DTD SVG 1.1//EN" "http://www.w3.org/Graphics/SVG/1.1/DTD/svg11.dtd">
<svg version="1.1" id="Capa_1" xmlns="http://www.w3.org/2000/svg" xmlns:xlink="http://www.w3.org/1999/xlink" x="0px" y="0px"
	 width="841.889px" height="595.281px" viewBox="0 0 841.889 595.281" enable-background="new 0 0 841.889 595.281"
	 xml:space="preserve">
<g>
	<path fill-rule="evenodd" clip-rule="evenodd" fill="#CCCCCC" d="M230.629,222.003c4.395,0,7.501,0,10.613,0
		c132.068,0,264.136,0.084,396.204-0.192c8.709-0.019,11.383,2.246,11.355,11.062c-0.281,89.423-0.141,178.849-0.199,268.274
		c-0.014,19.102-6.121,25.157-25.025,25.161c-122.521,0.022-245.044,0.021-367.565,0.002c-18.887-0.004-25.372-6.406-25.376-24.957
		c-0.016-89.424-0.007-178.851-0.007-268.273C230.629,229.923,230.629,226.765,230.629,222.003z M612.532,449.962
		c-12.564,0-23.596-0.181-34.611,0.177c-1.814,0.06-5.049,2.428-5.098,3.818c-0.416,11.541-0.234,23.103-0.234,35.396
		c12.547,0,23.588,0.224,34.602-0.222c1.838-0.074,5.029-2.994,5.104-4.708C612.761,473.441,612.532,462.427,612.532,449.962z
		 M536.136,489.356c0-12.444,0.275-23.461-0.279-34.433c-0.09-1.755-3.814-4.621-5.99-4.75c-9.141-0.537-18.363-0.618-27.486,0.043
		c-2.27,0.166-5.973,3.6-6.135,5.745c-0.686,9.121-0.619,18.344-0.033,27.479c0.131,2.077,3.357,5.552,5.295,5.648
		C512.505,489.636,523.548,489.356,536.136,489.356z M420.254,450.439c0,13.094,0,25.558,0,38.349c13.314,0,25.81,0,38.847,0
		c0-13.019,0-25.429,0-38.349C446.163,450.439,433.939,450.439,420.254,450.439z M383.342,489.356
		c0-12.444,0.275-23.458-0.279-34.433c-0.091-1.755-3.813-4.621-5.988-4.75c-9.143-0.537-18.36-0.618-27.488,0.042
		c-2.269,0.165-5.973,3.598-6.133,5.746c-0.687,9.121-0.621,18.344-0.035,27.479c0.133,2.075,3.355,5.552,5.293,5.648
		C359.709,489.636,370.752,489.356,383.342,489.356z M266.869,489.351c12.689,0,23.725,0.179,34.744-0.178
		c1.799-0.059,4.991-2.423,5.041-3.808c0.409-11.548,0.232-23.114,0.232-35.404c-12.518,0-23.552-0.23-34.56,0.223
		c-1.881,0.076-5.139,3.003-5.213,4.725C266.634,465.893,266.869,476.907,266.869,489.351z M572.468,373.563
		c0,12.529-0.189,23.545,0.205,34.541c0.059,1.657,2.805,4.551,4.383,4.605c11.551,0.395,23.121,0.212,35.52,0.212
		c0-12.177,0.279-22.887-0.248-33.559c-0.096-2.014-3.312-5.448-5.223-5.541C596.105,373.289,585.062,373.563,572.468,373.563z
		 M496.079,373.562c0,12.088-0.188,23.369,0.209,34.629c0.055,1.632,2.854,4.475,4.459,4.529c11.545,0.393,23.107,0.212,35.43,0.212
		c0-12.263,0.279-22.979-0.25-33.657c-0.1-1.986-3.371-5.365-5.305-5.459C519.618,373.289,508.577,373.562,496.079,373.562z
		 M459.198,374.114c-13.32,0-25.801,0-38.931,0c0,13.049,0,25.504,0,38.264c13.328,0,25.82,0,38.931,0
		C459.198,399.592,459.198,387.41,459.198,374.114z M382.754,412.442c0-13.43,0-25.616,0-38.348c-13.158,0-25.65,0-38.928,0
		c0,12.917,0,25.383,0,38.348C357.08,412.442,369.57,412.442,382.754,412.442z M306.984,412.962c0-12.232,0.281-22.944-0.244-33.615
		c-0.1-2.007-3.324-5.434-5.238-5.524c-11.001-0.533-22.042-0.26-34.622-0.26c0,12.042-0.228,23.313,0.248,34.556
		c0.071,1.685,3.395,4.548,5.307,4.625C283.432,413.188,294.455,412.962,306.984,412.962z M611.896,335.993
		c0-13.021,0-25.429,0-38.29c-13.207,0-25.688,0-38.848,0c0,13.037,0,25.5,0,38.29C586.365,335.993,598.857,335.993,611.896,335.993
		z M496.068,336.561c12.627,0,23.662,0.176,34.682-0.177c1.812-0.057,5.041-2.387,5.092-3.755
		c0.41-11.552,0.232-23.123,0.232-35.463c-12.465,0-23.496-0.229-34.496,0.22c-1.896,0.077-5.189,2.965-5.264,4.67
		C495.833,313.043,496.068,324.058,496.068,336.561z M420.279,297.625c0,13.155,0,25.609,0,38.351c13.335,0,25.828,0,38.802,0
		c0-13.042,0-25.45,0-38.351C446.118,297.625,433.89,297.625,420.279,297.625z M382.801,297.716c-13.32,0-25.799,0-38.93,0
		c0,13.05,0,25.505,0,38.267c13.326,0,25.819,0,38.93,0C382.801,323.196,382.801,311.013,382.801,297.716z M267.44,335.72
		c13.463,0,26.166,0,38.933,0c0-13.072,0-25.256,0-38.008c-13.146,0-25.64,0-38.933,0C267.44,310.572,267.44,323.033,267.44,335.72z
		"/>
	<path fill-rule="evenodd" clip-rule="evenodd" fill="#CCCCCC" d="M610.339,106.718c9.26,0.636,16.273,0.616,23.109,1.711
		c9.316,1.49,14.699,7.335,14.848,16.976c0.264,16.859,0.162,33.726,0.311,50.589c0.041,4.825-1.963,7.087-6.902,6.556
		c-1.574-0.168-3.18-0.017-4.77-0.017c-131.758,0-263.512,0-395.268,0c-3.148,0-6.297,0-11.038,0c0-13.168,0-25.754,0-38.338
		c0-1.593,0.093-3.189-0.014-4.773c-1.622-24.263,3.867-33.566,31.721-32.064c1.559,0.083,3.145-0.269,6.495-0.588
		c0-4.881-0.036-9.803,0.007-14.725c0.133-15.642,6.95-22.553,22.73-22.803c9.863-0.155,19.735-0.213,29.595,0.016
		c14.922,0.349,21.281,6.732,21.815,21.622c0.179,5.018,0.026,10.044,0.026,15.792c64.774,0,128.208,0,193.218,0
		c0-5.4-0.074-10.667,0.016-15.931c0.229-13.59,6.736-20.825,20.211-21.401c11.434-0.488,22.932-0.544,34.359,0.024
		c12.822,0.638,18.832,7.127,19.482,19.959C610.579,94.956,610.339,100.615,610.339,106.718z"/>
	<path fill-rule="evenodd" clip-rule="evenodd" fill="#FFFFFF" d="M612.532,449.962c0,12.466,0.229,23.479-0.238,34.462
		c-0.074,1.714-3.266,4.634-5.104,4.708c-11.014,0.445-22.055,0.222-34.602,0.222c0-12.294-0.182-23.855,0.234-35.396
		c0.049-1.391,3.283-3.759,5.098-3.818C588.937,449.781,599.968,449.962,612.532,449.962z"/>
	<path fill-rule="evenodd" clip-rule="evenodd" fill="#FFFFFF" d="M536.136,489.356c-12.588,0-23.631,0.28-34.629-0.267
		c-1.938-0.097-5.164-3.571-5.295-5.648c-0.586-9.136-0.652-18.358,0.033-27.479c0.162-2.146,3.865-5.579,6.135-5.745
		c9.123-0.661,18.346-0.58,27.486-0.043c2.176,0.129,5.9,2.995,5.99,4.75C536.411,465.895,536.136,476.912,536.136,489.356z"/>
	<path fill-rule="evenodd" clip-rule="evenodd" fill="#FFFFFF" d="M420.254,450.439c13.685,0,25.91,0,38.847,0
		c0,12.92,0,25.33,0,38.349c-13.037,0-25.533,0-38.847,0C420.254,475.997,420.254,463.533,420.254,450.439z"/>
	<path fill-rule="evenodd" clip-rule="evenodd" fill="#FFFFFF" d="M383.342,489.356c-12.59,0-23.633,0.28-34.631-0.267
		c-1.938-0.097-5.16-3.573-5.293-5.648c-0.586-9.136-0.651-18.358,0.035-27.479c0.16-2.148,3.864-5.581,6.133-5.746
		c9.128-0.66,18.346-0.579,27.488-0.042c2.175,0.129,5.897,2.995,5.988,4.75C383.617,465.898,383.342,476.912,383.342,489.356z"/>
	<path fill-rule="evenodd" clip-rule="evenodd" fill="#FFFFFF" d="M266.869,489.351c0-12.444-0.235-23.458,0.245-34.442
		c0.075-1.722,3.333-4.648,5.213-4.725c11.008-0.453,22.042-0.223,34.56-0.223c0,12.29,0.177,23.856-0.232,35.404
		c-0.05,1.385-3.242,3.749-5.041,3.808C290.594,489.53,279.558,489.351,266.869,489.351z"/>
	<path fill-rule="evenodd" clip-rule="evenodd" fill="#FFFFFF" d="M572.468,373.563c12.594,0,23.637-0.274,34.637,0.259
		c1.91,0.093,5.127,3.527,5.223,5.541c0.527,10.672,0.248,21.382,0.248,33.559c-12.398,0-23.969,0.183-35.52-0.212
		c-1.578-0.055-4.324-2.948-4.383-4.605C572.279,397.108,572.468,386.093,572.468,373.563z"/>
	<path fill-rule="evenodd" clip-rule="evenodd" fill="#FFFFFF" d="M496.079,373.562c12.498,0,23.539-0.273,34.543,0.254
		c1.934,0.094,5.205,3.473,5.305,5.459c0.529,10.678,0.25,21.395,0.25,33.657c-12.322,0-23.885,0.181-35.43-0.212
		c-1.605-0.055-4.404-2.897-4.459-4.529C495.892,396.931,496.079,385.65,496.079,373.562z"/>
	<path fill-rule="evenodd" clip-rule="evenodd" fill="#FFFFFF" d="M459.198,374.114c0,13.296,0,25.478,0,38.264
		c-13.111,0-25.604,0-38.931,0c0-12.76,0-25.215,0-38.264C433.398,374.114,445.878,374.114,459.198,374.114z"/>
	<path fill-rule="evenodd" clip-rule="evenodd" fill="#FFFFFF" d="M382.754,412.442c-13.184,0-25.674,0-38.928,0
		c0-12.965,0-25.431,0-38.348c13.277,0,25.77,0,38.928,0C382.754,386.826,382.754,399.012,382.754,412.442z"/>
	<path fill-rule="evenodd" clip-rule="evenodd" fill="#FFFFFF" d="M306.984,412.962c-12.529,0-23.552,0.227-34.549-0.219
		c-1.912-0.077-5.235-2.94-5.307-4.625c-0.476-11.242-0.248-22.514-0.248-34.556c12.58,0,23.621-0.273,34.622,0.26
		c1.914,0.091,5.139,3.518,5.238,5.524C307.265,390.017,306.984,400.729,306.984,412.962z"/>
	<path fill-rule="evenodd" clip-rule="evenodd" fill="#FFFFFF" d="M611.896,335.993c-13.039,0-25.531,0-38.848,0
		c0-12.79,0-25.253,0-38.29c13.16,0,25.641,0,38.848,0C611.896,310.564,611.896,322.972,611.896,335.993z"/>
	<path fill-rule="evenodd" clip-rule="evenodd" fill="#FFFFFF" d="M496.068,336.561c0-12.503-0.234-23.519,0.246-34.505
		c0.074-1.705,3.367-4.593,5.264-4.67c11-0.449,22.031-0.22,34.496-0.22c0,12.34,0.178,23.912-0.232,35.463
		c-0.051,1.368-3.279,3.698-5.092,3.755C519.73,336.737,508.695,336.561,496.068,336.561z"/>
	<path fill-rule="evenodd" clip-rule="evenodd" fill="#FFFFFF" d="M420.279,297.625c13.611,0,25.839,0,38.802,0
		c0,12.9,0,25.309,0,38.351c-12.975,0-25.467,0-38.802,0C420.279,323.234,420.279,310.78,420.279,297.625z"/>
	<path fill-rule="evenodd" clip-rule="evenodd" fill="#FFFFFF" d="M382.801,297.716c0,13.298,0,25.48,0,38.267
		c-13.11,0-25.604,0-38.93,0c0-12.762,0-25.217,0-38.267C357.002,297.716,369.48,297.716,382.801,297.716z"/>
	<path fill-rule="evenodd" clip-rule="evenodd" fill="#FFFFFF" d="M267.44,335.72c0-12.688,0-25.148,0-38.008
		c13.293,0,25.788,0,38.933,0c0,12.752,0,24.936,0,38.008C293.605,335.72,280.903,335.72,267.44,335.72z"/>
</g>
</svg>
