<?xml version="1.0" encoding="utf-8"?>
<!-- Generator: Adobe Illustrator 19.1.0, SVG Export Plug-In . SVG Version: 6.00 Build 0)  -->
<svg version="1.1" id="Capa_1" xmlns="http://www.w3.org/2000/svg" xmlns:xlink="http://www.w3.org/1999/xlink" x="0px" y="0px"
	 viewBox="-149 -30.8 541.8 361.8" style="enable-background:new -149 -30.8 541.8 361.8;" xml:space="preserve">
<style type="text/css">
	.st0{fill:#666666;}
</style>
<g>
	<g>
		<g>
			<path class="st0" d="M181.9,13h-27.5V-5.8c0-13.8-11.2-25-25-25h-1c-13.8,0-25,11.2-25,25V13h-129V-5.8c0-13.8-11.2-25-25-25h-1
				c-13.8,0-25,11.2-25,25V13h-27.5c-13.8,0-25,11.2-25,25v268c0,13.8,11.2,25,25,25h286c13.8,0,25-11.2,25-25V38
				C206.9,24.2,195.7,13,181.9,13z M164.9,291.5h-252v-203h252V291.5z"/>
			<path class="st0" d="M-52.9,180.4h43.5c2.2,0,4-1.8,4-4v-43.5c0-2.2-1.8-4-4-4h-43.5c-2.2,0-4,1.8-4,4v43.5
				C-56.9,178.6-55.1,180.4-52.9,180.4z"/>
			<path class="st0" d="M17.1,180.4h43.5c2.2,0,4-1.8,4-4v-43.5c0-2.2-1.8-4-4-4H17.1c-2.2,0-4,1.8-4,4v43.5
				C13.1,178.6,14.9,180.4,17.1,180.4z"/>
			<path class="st0" d="M87.1,180.4h43.5c2.2,0,4-1.8,4-4v-43.5c0-2.2-1.8-4-4-4H87.1c-2.2,0-4,1.8-4,4v43.5
				C83.1,178.6,84.9,180.4,87.1,180.4z"/>
			<path class="st0" d="M-52.9,250.4h43.5c2.2,0,4-1.8,4-4v-43.5c0-2.2-1.8-4-4-4h-43.5c-2.2,0-4,1.8-4,4v43.5
				C-56.9,248.6-55.1,250.4-52.9,250.4z"/>
			<path class="st0" d="M17.1,250.4h43.5c2.2,0,4-1.8,4-4v-43.5c0-2.2-1.8-4-4-4H17.1c-2.2,0-4,1.8-4,4v43.5
				C13.1,248.6,14.9,250.4,17.1,250.4z"/>
			<path class="st0" d="M87.1,250.4h43.5c2.2,0,4-1.8,4-4v-43.5c0-2.2-1.8-4-4-4H87.1c-2.2,0-4,1.8-4,4v43.5
				C83.1,248.6,84.9,250.4,87.1,250.4z"/>
		</g>
	</g>
</g>
</svg>
