<?xml version="1.0" encoding="utf-8"?>
<!-- Generator: Adobe Illustrator 21.0.0, SVG Export Plug-In . SVG Version: 6.00 Build 0)  -->
<svg version="1.1" id="圖層_1" xmlns="http://www.w3.org/2000/svg" xmlns:xlink="http://www.w3.org/1999/xlink" x="0px" y="0px"
	 viewBox="0 0 700 300" style="enable-background:new 0 0 700 300;" xml:space="preserve">
<style type="text/css">
	.st0{fill:#EAEAEA;}
</style>
<g>
	<path class="st0" d="M84.6,135.3H67.7v-4.4H74c-0.6-1.4-1.2-2.7-2-3.8l5-1.5c1.1,2,1.9,3.7,2.5,5.3h5V135.3z M83.1,143.4H68.9v-4.5
		h14.2V143.4z M83.1,151.5H68.9v-4.6h14.2V151.5z M83.1,172.8h-4.6v-2.5h-4.7v3.6h-4.8v-19h14.2V172.8z M78.4,165.8v-6.3h-4.7v6.3
		H78.4z M112.8,169.4c0,3.1-1.9,4.6-5.6,4.6c-0.8,0-1.8,0-3-0.1l-1.6-4.5h4.3c0.7,0,1.1-0.4,1.1-1.1v-2.8H92.7c-0.7,3.7-2,6.6-4,8.9
		l-4-2.9c2.5-2.8,3.7-6.8,3.7-12v-10.8h24.3V169.4z M115.3,146.3h-30v-4.1h12.5v-2.6H87.5v-3.8h10.3v-2.4H86.3v-4h11.6v-3.4h4.8v3.4
		h11.6v4h-11.6v2.4h10.3v3.8h-10.3v2.6h12.7V146.3z M108,161.8v-2.8H93.2c0,1.4,0,2.3-0.1,2.8H108z M108,155.3v-2.6H93.2v2.6H108z"
		/>
	<path class="st0" d="M172.9,162.4c-0.6,4.1-1.1,6.7-1.5,7.8c-0.5,1.1-1.3,1.9-2.4,2.5s-2.9,0.9-5.5,0.9c-2.6,0-4.5-0.1-5.6-0.1
		c-1.9,0-3.3-0.4-4.2-1.2s-1.4-2.3-1.4-4.5v-16.1h-7.8c-0.3,6.1-1.8,10.8-4.4,14.2c-2.6,3.3-7,6.1-13,8.2l-2.3-4.5
		c9.9-3,14.8-9,14.7-17.8h-13.8v-4.5h20.8v-8.5h-10.4c-2,3-3.8,5.2-5.4,6.5l-4.4-2.9c4.3-3.9,7.8-9.1,10.6-15.6l4.8,1.7l-2.7,5.7
		h7.6v-7.9h4.9v7.9h18.9v4.6h-18.9v8.5h20.9v4.5h-14.9v15.8c0,0.5,0.2,0.9,0.7,1.1s1.8,0.3,4.1,0.3c2,0,3.2-0.1,3.8-0.4
		c0.5-0.3,0.9-0.9,1.3-2s0.6-3,0.9-5.8L172.9,162.4z"/>
	<path class="st0" d="M188.4,163.3c-0.4,4.2-1.2,7.9-2.6,11l-3.9-1.8c1.2-3.5,2-6.9,2.4-10.1L188.4,163.3z M206.5,161.3h-24v-4.2h10
		v-3.5h-8.7v-4.2h8.7v-3.1h-8.7v-19.1h21.4v19.1h-8.5v3.1h8.5v4.2h-8.5v3.5h9.7V161.3z M192.5,142.5v-11.2h-5v11.2H192.5z
		 M191.4,140.5l-2.2,0.8c-0.2-2.8-0.5-5.4-1-7.8l2.1-0.8C190.8,135.1,191.2,137.7,191.4,140.5z M194.5,173.1l-4.2,0.5
		c0.1-2.6-0.2-5.9-1-10l3.9-0.4C194,166.2,194.4,169.5,194.5,173.1z M201.1,172l-4.1,0.6c-0.2-2.6-0.9-5.7-2.2-9.2l4-0.5
		C199.9,165.8,200.7,168.8,201.1,172z M201.7,142.5v-11.2h-4.9v11.2H201.7z M201.1,133.3c-0.3,2.9-0.8,5.5-1.5,8l-2.1-0.7
		c0.7-2.3,1.1-4.9,1.4-7.9L201.1,133.3z M206.9,170.6l-3.9,0.9c-0.4-2.5-1.2-5.3-2.3-8.4l3.8-0.8
		C205.5,164.8,206.3,167.5,206.9,170.6z M230.1,139.1h-10.8v9.2h9.1V174h-4.8v-3H213v3h-4.7v-25.7h6.3v-22h4.8v8.2h10.8V139.1z
		 M223.7,166.3v-13.5H213v13.5H223.7z"/>
	<path class="st0" d="M265.2,146.9h-10.5v2.6h4.1V148h4.4v4.3h-21.3V148h4.3v1.5h4.2v-2.6h-10.5v-3h10.5v-1.7h-8.5v-10h8.5v-1.6
		h-10.5v-2.9h10.5v-1.8h4.4v1.8h10.4v2.9h-10.4v1.6h8.5v10h-8.5v1.7h10.5V146.9z M287.5,167.7h-21.3l0.1,1.5c0,1.9-0.5,3.2-1.6,3.8
		s-3.6,0.9-7.7,0.9l-1.5-4.1l5-0.1c0.7,0,1.1-0.4,1.1-1.2l-0.1-0.9h-21.7v-3.4h21.7v-1.9h-19.1v-3.2h19.1v-1.8
		c-8.5,0.2-13.9,0.3-16.2,0.3l-1.5-3.6c15.2,0.2,27.3-0.4,36.4-1.8l2.4,3.3c-5.4,0.8-10.8,1.3-16.4,1.6v2H285v3.2h-18.8v1.9h21.3
		V167.7z M250.3,135.9v-1.4h-4.2v1.4H250.3z M250.3,139.7v-1.5h-4.2v1.5H250.3z M258.8,135.9v-1.4h-4.1v1.4H258.8z M258.8,139.7
		v-1.5h-4.1v1.5H258.8z M287.4,136.4h-6.2c-2.2,0-3.2-1.1-3.2-3.3v-2.6h-5.2c-0.2,3.6-2.2,6-6.2,7.2l-2.5-3.3
		c1.6-0.6,2.7-1.3,3.2-1.9c0.5-0.7,0.8-1.7,0.8-3v-2.6h14.3v5.3c0,0.6,0.2,0.9,0.7,0.9h4.2V136.4z M287.8,148.6l-1.4,4
		c-3.3-0.4-6.8-1.5-10.3-3.1c-3.4,1.6-6.7,2.6-9.8,3l-1.9-3.8c3-0.4,5.5-1,7.4-1.7c-2.3-2-3.8-3.7-4.5-5h-1.8v-3.5h19.9v3.5
		c-1.2,1.5-2.9,3.2-5.1,5C282.6,147.7,285.1,148.3,287.8,148.6z M279.9,142h-7.8c1,1.2,2.3,2.2,3.8,3C277.7,144,279,143,279.9,142z"
		/>
	<path class="st0" d="M303.6,161.2c-0.6,5.1-1.5,9.4-2.7,12.9l-4-2.2c1.1-3.6,1.9-7.5,2.5-11.8L303.6,161.2z M315.9,157.5l-4.1,1.4
		c-0.1-0.7-0.3-1.6-0.7-2.6c-3.9,1.1-8.1,2-12.6,2.8l-1.3-4.1c3-2.7,5.9-6.4,8.6-11.2c-2.8,0.4-5.3,0.7-7.4,0.8l-0.9-4.3
		c3.2-3.6,5.9-8.5,8.1-14.5l4.4,1.8c-2.2,4.6-4.5,8.6-7,12c1.8-0.1,3.5-0.3,5.2-0.7c1.1-1.9,2.1-4,3-6.3l4.2,2.2
		c-3.8,7.8-7.7,14-11.8,18.8c1.7-0.2,3.7-0.7,6-1.3c-0.2-0.9-0.6-1.9-1.3-3l4-1.5C314.1,151.1,315.2,154.4,315.9,157.5z
		 M309.2,171.2l-4.2,0.9c0.1-3.4-0.1-7-0.6-10.9l3.8-0.7C308.9,164,309.2,167.6,309.2,171.2z M314.5,166.1l-3.7,0.9
		c-0.2-2.5-0.6-4.6-1.1-6.5l3.5-0.8C313.8,161.7,314.2,163.9,314.5,166.1z M344.6,129.9c-6.2,1.7-14,2.7-23.3,3v2.4h21.8v11.5h-21.8
		v6.7c0,8.4-1.5,15.3-4.5,20.9l-3.7-3.3c2.4-4.4,3.6-11.1,3.6-20.1v-22.2c9.3,0.1,17.7-0.9,25.4-2.9L344.6,129.9z M338.5,142.6v-3.2
		h-17.1v3.2H338.5z M344.3,170.8c0,2.1-1.3,3.2-3.9,3.2c-0.3,0-0.6,0-0.9-0.1l-0.9-4.2c1,0,1.6-0.3,1.6-0.8v-5.5h-2v9.5h-3.5v-9.5
		h-2v9.5h-3.6v-9.5H327v10.5h-4v-24.3h21.3V170.8z M329.1,159.5v-5.7H327v5.7H329.1z M334.7,159.5v-5.7h-2v5.7H334.7z M340.2,159.5
		v-5.7h-2v5.7H340.2z"/>
	<path class="st0" d="M374.9,167.3h-7.3v6.6h-4.5v-6.6h-8.2v-4.2h8.2v-3.6h-6.6v-21.7h6.6v-3.4h-8.4v-4.3h8.4v-3.7h4.5v3.7h7.3v4.3
		h-7.3v3.4h6.4v21.7h-6.4v3.6h7.3V167.3z M363.1,146.6v-4.8h-2.5v4.8H363.1z M363.1,155.4v-4.9h-2.5v4.9H363.1z M370.1,146.6v-4.8
		h-2.4v4.8H370.1z M370.1,155.4v-4.9h-2.4v4.9H370.1z M402.5,168.4h-2.9v5.5h-4.8v-5.5h-18.4v-4.2h2.1v-17.9H376v-4h26v4h-2.3v17.9
		h2.9V168.4z M399.8,139.2H378v-12h21.8V139.2z M394.9,135.1v-3.7h-12.1v3.7H394.9z M394.8,149.6v-3.3h-11.5v3.3H394.8z
		 M394.8,156.8v-3.4h-11.5v3.4H394.8z M394.8,164.2v-3.5h-11.5v3.5H394.8z"/>
	<path class="st0" d="M459.7,172.6H412v-4.9h19.6v-41.5h5.1v16.4h20.6v4.8h-20.6v20.3h23V172.6z"/>
	<path class="st0" d="M481.7,127.1l-3.1,10.9v35.7h-4.6v-25.4c-0.8,1.3-1.7,2.6-2.7,4l-2.2-5.5c3.4-5,6.1-12,8.1-21.1L481.7,127.1z
		 M517.3,164.4h-6.5v4.7c0,1-0.2,1.9-0.7,2.6c-0.5,0.8-1.1,1.3-1.8,1.6c-0.8,0.3-2.1,0.4-4.1,0.4c-0.7,0-1.7,0-2.9-0.1l-1.8-4.8
		c0.8,0.1,1.7,0.1,2.5,0.1c1.7,0,2.7,0,3.2-0.1c0.5-0.1,0.7-0.4,0.7-0.9v-3.6h-24.9v-4H506v-1.9h4.8v1.9h6.5V164.4z M517.8,157
		l-3.9,1.9l-1.5-1.8c-12.4,0.7-22.5,1.2-30.1,1.3l-0.9-4.2c4.9,0.1,10.1,0,15.4-0.2v-3h-13.5v-16h13.5v-2.3H482v-4h14.7V126h4.6v2.8
		h15.3v4h-15.3v2.3h13.4v16h-2.1C514.9,153.2,516.7,155.2,517.8,157z M497.9,169.7l-3.2,3.4c-2.7-2-5.6-3.5-8.7-4.6l3.2-3.4
		C492.9,166.6,495.8,168.1,497.9,169.7z M496.7,141.3v-2.4h-8.9v2.4H496.7z M496.7,147.3V145h-8.9v2.4H496.7z M510.1,141.3v-2.4
		h-8.8v2.4H510.1z M510.1,147.3V145h-8.8v2.4H510.1z M510.6,151h-9.2v2.7c3.7-0.1,6.2-0.2,7.5-0.3c-0.5-0.4-0.9-0.8-1.3-1.1
		L510.6,151z"/>
	<path class="st0" d="M544.3,150l-3.4,3.2c-0.9-2.2-1.8-3.9-2.7-5.3v26.1h-4.6v-22.8c-1.1,3-2.7,6.1-4.8,9.3l-2.3-5.2
		c2.7-3.6,5-8.5,6.8-14.6h-6.2V136h6.5v-9.7h4.6v9.7h3v4.8h-3v0.8C540.2,143.8,542.3,146.6,544.3,150z M573.9,144.8h-4.6v-6h-21.6
		v6.1h-4.8v-10.3h13.1v-8.3h4.8v8.3h13.1V144.8z M553.2,131.3l-3.8,2.5c-1.1-1.4-2.7-2.8-5-4.5l4-2.5
		C550.1,127.9,551.7,129.4,553.2,131.3z M572.3,174.1h-4.6v-2.4h-18.1v2.4H545v-20h27.3V174.1z M567.4,151.4h-17.8v-9.9h17.8V151.4z
		 M556.3,160.8v-2.9h-6.7v2.9H556.3z M556.3,167.7v-3.1h-6.7v3.1H556.3z M562.9,147.7v-2.5h-8.7v2.5H562.9z M567.7,160.8v-2.9h-6.8
		v2.9H567.7z M567.7,167.7v-3.1h-6.8v3.1H567.7z M572,128.9c-1.5,2.2-3,3.9-4.3,5l-4.2-2.2c1.5-1.4,2.9-3,4.2-4.8L572,128.9z"/>
	<path class="st0" d="M632.1,160.8h-21.4v13.1h-4.8v-13.1h-21.3v-4.4h21.3v-3.3h4.8v3.3h21.4V160.8z M602.7,165
		c-4.6,3.5-9.8,6.3-15.6,8.3l-2.5-4c5.3-1.5,10.1-3.9,14.6-7.1L602.7,165z M631,141.8h-13c-1.5,2.2-2.9,3.8-4.2,4.9
		c5.7,1.4,10.9,3.1,15.6,5l-2.2,3.7c-4.8-2.1-10.6-4-17.6-5.6c-5.7,3.2-13.5,5-23.3,5.3l-1.4-4.2c7.1,0.1,13.2-0.8,18.3-2.7
		c-3.5-0.8-7.4-1.5-11.7-2.1c1.4-1.2,2.8-2.7,4.4-4.4h-10.8v-4h14.3c0.9-1.2,1.7-2.3,2.6-3.6l4.6,1.2c-0.4,0.6-0.9,1.4-1.6,2.4h10.1
		l1.2-2.2l4.6,0.7c-0.1,0.3-0.3,0.8-0.7,1.5H631V141.8z M630,136.4h-4.7v-2.9h-34.4v2.9h-4.8v-7H606c-0.4-0.8-0.8-1.6-1.3-2.4
		l4.6-1.3l2,3.7H630V136.4z M612.6,141.8h-10.5c-0.7,0.8-1.3,1.5-1.8,2c3.7,0.7,6.5,1.3,8.5,1.8
		C610.5,144.1,611.8,142.8,612.6,141.8z M632.3,169.3l-2.5,3.7c-5.2-2.9-10.6-5.2-16-6.9l2.5-3.7
		C622.3,164.3,627.6,166.6,632.3,169.3z"/>
</g>
</svg>
