<?xml version="1.0" encoding="utf-8"?>
<!-- Generator: Adobe Illustrator 21.0.0, SVG Export Plug-In . SVG Version: 6.00 Build 0)  -->
<svg version="1.1" id="圖層_1" xmlns="http://www.w3.org/2000/svg" xmlns:xlink="http://www.w3.org/1999/xlink" x="0px" y="0px"
	 viewBox="0 0 700 300" style="enable-background:new 0 0 700 300;" xml:space="preserve">
<style type="text/css">
	.st0{fill:#EAEAEA;}
</style>
<g>
	<path class="st0" d="M150.4,124.6c-1.3,2.7-3.1,5.9-5.4,9.6v22.4l-5.3-0.1v-15.2c-0.8,0.8-2.1,2.2-3.9,3.9l-3.1-4.5
		c4.6-4,8.9-10,12.8-17.9L150.4,124.6z M145.1,160c-2.2,6.2-4.6,11.1-7.4,14.7l-4.5-3c2.5-3,4.8-7.4,7-13.3L145.1,160z M185,127.6
		c-1.1,4.7-2.3,8.3-3.5,10.9l-5.1-1.7c0.6-1.3,1.1-2.7,1.6-4.2h-19.7c-2.5,3.6-5,6.5-7.6,8.6l-3.9-3.6c3.8-3.2,7.5-8,11.3-14.6
		l4.8,2.1c-0.7,1.3-1.2,2.2-1.5,2.6H185z M175,166.7c-0.6,3.3-1.3,5.5-2.1,6.6c-0.7,1.1-1.8,1.8-3.3,2.2s-4.9,0.6-10.2,0.6
		c-4.7,0-7.8-0.4-9.4-1.2c-1.6-0.8-2.4-2.7-2.4-5.7V158h5.3v10.7c0,0.9,0.4,1.6,1.2,1.8c0.8,0.3,2.8,0.4,5.9,0.4
		c3.4,0,5.6-0.1,6.5-0.3s1.6-0.7,2.1-1.5s0.8-2.4,1-4.6L175,166.7z M162,141.2c-3.2,5.7-6.5,10.2-9.7,13.3l-4.1-3.5
		c3-2.9,6-7.1,9.2-12.8L162,141.2z M167.3,164.4l-4.2,3.2c-2-3.2-4.4-6.2-7-9.1l4-3.1C163.5,159,165.9,162,167.3,164.4z
		 M169.9,156.7h-5.5V135h5.5V156.7z M186.2,150.8l-4.3,3.1c-2.6-4.3-5.8-8.4-9.4-12.4l4.3-2.8C180.4,142.6,183.5,146.7,186.2,150.8z
		 M186.3,172.1l-4.6,2.8c-2.3-5.1-5-9.7-8.1-13.8l4.4-2.9C181.3,162.5,184.1,167.1,186.3,172.1z"/>
	<path class="st0" d="M246.6,170.8c0,1.3-0.3,2.4-1,3.3c-0.7,0.9-1.5,1.4-2.4,1.7s-2.5,0.4-4.6,0.4c-1.8,0-3.7,0-5.6-0.1l-1.8-5.4
		c1.5,0.1,4.3,0.1,8.2,0.1c0.5,0,0.9-0.2,1.3-0.5c0.4-0.4,0.5-0.8,0.5-1.3v-23.4h-36v30.6h-5.4v-35.5h20.6v-17.1h5.5v17.1h20.6
		V170.8z M213.8,136.8l-4.7,2.8c-1.7-3.4-4.3-7.3-7.9-11.7l4.6-2.9C209.4,129.2,212.1,133.1,213.8,136.8z M234.5,168.3h-22.6v-17.9
		h22.6V168.3z M229.2,163.7V155h-12v8.6H229.2z M244.8,127.6c-2.2,4.5-4.9,8.5-7.9,12l-4.7-3.1c3.2-3.7,5.9-7.6,8-11.7L244.8,127.6z
		"/>
	<path class="st0" d="M313.1,161.1h-52.5v-4.9h7.7v-8.1h-6.6v-4.9h6.6v-6.3c-0.9,0.8-2.3,2-4.1,3.5l-4-4.2c5.7-4.1,10-8.5,12.9-13.3
		l5.6,1.6c-0.9,1.7-2,3.3-3.2,4.7h36v5h-40.6c-0.5,0.6-1.4,1.4-2.5,2.5h5.2v6.5h5.6v-6.5h5.1v6.5h6v-6.5h5.1v6.5h6v-6.5h5.2v6.5h5.4
		v4.9h-5.4v8.1h6.5V161.1z M272.2,164.9c-1.9,4.7-4.2,8.8-6.9,12.2l-5-3.2c2.2-2.5,4.4-6.3,6.8-11.2L272.2,164.9z M279.2,156.2v-8.1
		h-5.6v8.1H279.2z M284.9,175l-5.3,1.6c-0.7-3.7-1.8-7.5-3.3-11.6l5.1-1.8C282.7,166.3,283.9,170.3,284.9,175z M290.4,156.2v-8.1h-6
		v8.1H290.4z M299.2,174.5l-5.2,2.1c-1.2-3.8-2.8-7.7-4.9-11.5l5.2-2C296.6,167.5,298.2,171.4,299.2,174.5z M301.4,156.2v-8.1h-6
		v8.1H301.4z M313.5,174.4l-5.3,2.3c-1.7-4.1-3.9-8.1-6.6-12l5.2-2.4C309.5,166.2,311.8,170.3,313.5,174.4z"/>
	<path class="st0" d="M330.8,162.3c-0.6,5.7-1.6,10.4-3,14.2l-4.4-2.4c1.2-4,2.1-8.3,2.8-13L330.8,162.3z M344.4,158.2l-4.5,1.5
		c-0.1-0.8-0.4-1.8-0.7-2.9c-4.3,1.2-9,2.3-13.9,3.1l-1.4-4.6c3.3-3,6.5-7.1,9.5-12.3c-3.1,0.5-5.8,0.8-8.2,0.9l-0.9-4.8
		c3.5-4,6.5-9.4,9-16l4.9,2c-2.4,5.1-5,9.5-7.7,13.2c2-0.1,3.9-0.3,5.8-0.8c1.2-2,2.3-4.4,3.3-7l4.6,2.4c-4.2,8.6-8.5,15.5-13,20.8
		c1.9-0.3,4.1-0.7,6.6-1.4c-0.2-1-0.7-2.1-1.4-3.4l4.4-1.7C342.4,151.1,343.7,154.7,344.4,158.2z M337,173.3l-4.6,1
		c0.2-3.7-0.1-7.7-0.6-12l4.2-0.8C336.6,165.4,337,169.3,337,173.3z M342.9,167.7l-4,0.9c-0.2-2.7-0.6-5.1-1.2-7.2l3.9-0.9
		C342.1,162.8,342.6,165.2,342.9,167.7z M376.2,127.6c-6.9,1.9-15.5,3-25.7,3.3v2.7h24.1v12.8h-24.1v7.4c0,9.3-1.7,17-5,23.1l-4-3.7
		c2.7-4.9,4-12.3,4-22.3v-24.5c10.3,0.1,19.6-1,28.1-3.2L376.2,127.6z M369.4,141.7v-3.5h-18.9v3.5H369.4z M375.8,172.9
		c0,2.3-1.4,3.5-4.3,3.5c-0.4,0-0.7,0-1-0.1l-1-4.6c1.2,0,1.7-0.3,1.7-0.9v-6.1H369v10.4h-3.9v-10.4h-2.2v10.4H359v-10.4h-2.3v11.7
		h-4.5v-26.9h23.6V172.9z M359,160.4v-6.3h-2.3v6.3H359z M365.1,160.4v-6.3h-2.2v6.3H365.1z M371.3,160.4v-6.3H369v6.3H371.3z"/>
	<path class="st0" d="M409.6,169h-8v7.3h-5V169h-9.1v-4.7h9.1v-4h-7.3v-24h7.3v-3.7h-9.3v-4.7h9.3v-4.1h5v4.1h8v4.7h-8v3.7h7.1v24
		h-7.1v4h8V169z M396.6,146.1v-5.3h-2.7v5.3H396.6z M396.6,155.9v-5.4h-2.7v5.4H396.6z M404.3,146.1v-5.3h-2.7v5.3H404.3z
		 M404.3,155.9v-5.4h-2.7v5.4H404.3z M440.1,170.3h-3.2v6.1h-5.3v-6.1h-20.4v-4.7h2.4v-19.8h-2.8v-4.5h28.7v4.5h-2.6v19.8h3.2V170.3
		z M437.1,137.9H413v-13.3h24.1V137.9z M431.7,133.4v-4.1h-13.4v4.1H431.7z M431.6,149.4v-3.6h-12.7v3.6H431.6z M431.6,157.4v-3.7
		h-12.7v3.7H431.6z M431.6,165.6v-3.9h-12.7v3.9H431.6z"/>
	<path class="st0" d="M468.9,149.7l-3.7,3.5c-0.7-2.1-1.5-4.1-2.6-6v29h-5.3v-27c-1,4.4-2.6,8.4-4.8,11.8l-2.6-5.9
		c2.7-4.4,4.9-10,6.6-16.6h-5.8v-5.2h6.5v-9.7h5.3v9.7h4.9v5.2h-4.9v1C465.3,142.9,467.4,146.3,468.9,149.7z M503.4,174h-27.3v2.3
		h-5.3v-18c-0.8,0.8-2.1,1.8-3.7,3.1l-2.3-4.4c3.5-2.7,6.9-6.6,10-11.7l4.6,1.6c-0.2,0.6-0.6,1.3-1.3,2.2h6.5
		c-0.3-0.6-0.7-1.4-1.4-2.5l5.3-0.9c0.4,0.7,0.9,1.8,1.7,3.3h12.4v3.8h-12.8v3.2h10.9v3.5h-10.9v3.4h10.9v3.5h-10.9v3.6h13.5V174z
		 M482.3,133.2H477v-2.8h-9v-4.2h8.9l0.1-2.7h5.3V133.2z M483.9,144.8h-14.3v-10.1h14.3V144.8z M479,141.2v-2.9h-4.5v2.9H479z
		 M484.7,156.1v-3.2h-8.6v3.2H484.7z M484.7,163v-3.4h-8.6v3.4H484.7z M484.7,170.1v-3.6h-8.6v3.6H484.7z M501.1,144.8h-14.3v-10.1
		h14.3V144.8z M502.9,130.5h-9.2v2.8h-5.1v-9.6h5.1v2.7h9.2V130.5z M496.2,141.2v-2.9h-4.5v2.9H496.2z"/>
	<path class="st0" d="M529.3,142c3.4,4.9,5,9.5,5,13.8c0,5.6-2.8,8.5-8.3,8.5c-0.6,0-1.2,0-1.9-0.1l-1.5-5.4
		c0.8,0.1,1.7,0.2,2.7,0.2c1.4,0,2.4-0.2,2.9-0.6c0.5-0.4,0.8-1.2,0.8-2.4c0-4.4-1.8-8.9-5.4-13.5c1.1-2.8,2.5-7,4.2-12.6h-6.6v46.5
		h-5.2v-51.9h17.4v5.4C532,134.4,530.7,138.4,529.3,142z M564,149.9h-21.6v19.4c2.8-0.8,5.7-2,8.9-3.5l0.3,5.6
		c-5.5,2.4-10,4-13.7,4.9l-1.9-4.5c0.8-0.5,1.2-1.3,1.2-2.4v-44.7H564V149.9z M558.6,135v-5.4h-16.2v5.4H558.6z M558.6,145.1v-5.4
		h-16.2v5.4H558.6z M567.3,172.3l-3.1,4.4c-8.6-5.2-14.2-12.9-16.9-23l4.9-1.5c0.7,2.6,1.6,4.9,2.7,6.8c2.6-1.9,5.2-4.3,7.7-7.3
		l3.9,3.5c-3,3.6-5.9,6.5-8.8,8.5C560.3,167.1,563.5,170,567.3,172.3z"/>
</g>
</svg>
