<?xml version="1.0" encoding="utf-8"?>
<!-- Generator: Adobe Illustrator 19.1.0, SVG Export Plug-In . SVG Version: 6.00 Build 0)  -->
<svg version="1.1" id="圖層_1" xmlns="http://www.w3.org/2000/svg" xmlns:xlink="http://www.w3.org/1999/xlink" x="0px" y="0px"
	 viewBox="0 0 700 300" style="enable-background:new 0 0 700 300;" xml:space="preserve">
<style type="text/css">
	.st0{fill:#EAEAEA;}
</style>
<g>
	<path class="st0" d="M101.7,78.5v4.3H82.1v-4.3H101.7z M100.4,101.1v17.6h-4.5v-2.4h-7.7v2.6h-4.5v-17.8H100.4z M99.6,71.2v4.1
		H84.5v-4.1H99.6z M99.3,86.2v4.1H84.7v-4.1H99.3z M99.3,93.8v4.1H84.7v-4.1H99.3z M95.9,112.2v-7.1h-7.7v7.1H95.9z M114.8,72.9
		v-3.8l4.3,0.3c0.8,0.1,1.3,0.3,1.3,0.7c0,0.2-0.3,0.6-0.9,1.1v1.7h11.2V77h-11.2v2.8h9.7v4.1h-9.7v2.8h12.3V91h-29.6v-4.3h12.6
		v-2.8h-9.9v-4.1h9.9V77h-11.6v-4.1H114.8z M129.2,93.1v21.1c0,2.3-1.2,3.8-3.5,4.5c-1.8,0.5-3.6,0.9-5.3,0.9l-2-4.7l4.2-0.1
		c1.2-0.1,1.8-0.7,1.8-2v-1.8h-14.8v8.2h-4.7v-26h2.4H129.2z M124.5,100.2v-3h-14.8v3H124.5z M124.5,107.1v-3h-14.8v3H124.5z"/>
	<path class="st0" d="M143.6,72.9c0.8,0.1,1.3,0.3,1.3,0.7c0,0.2-0.3,0.6-0.9,1v11.2h5.8V69.5l4.5,0.4c0.8,0.1,1.3,0.3,1.3,0.7
		c0,0.3-0.3,0.7-0.8,1.3v47.5h-4.9V100h-4.5v3.5c0,3-0.4,5.8-1.1,8.5c-0.7,2.7-1.8,5.1-3.2,7.2l-4.5-2.4c1.5-1.9,2.6-3.8,3.2-5.8
		c0.7-2.5,1.1-5,1.1-7.5V100h-3.7v-4.3h12.7v-5.6h-10.6V72.5L143.6,72.9z M171.4,70.3c0.5,0.2,0.8,0.5,0.8,0.7
		c0,0.3-0.3,0.5-0.9,0.6c-0.5,0.8-1,1.5-1.6,2.2h12.5c0.2-0.2,0.3-0.4,0.5-0.7c0.3,0,0.5,0.1,0.7,0.3l3.2,2.5
		c0.4,0.2,0.7,0.5,0.7,0.8c0,0.5-0.6,1-1.7,1.3c-5.2,5.8-9.5,9.7-13,11.6c-3.8,2.4-9.1,4-15.6,4.9l-1.5-4.5c2.8-0.3,5.4-0.8,7.7-1.5
		c-1.1-1.2-2.1-2.1-3.2-3l3-2.7c1.6,1.2,3.1,2.6,4.6,4.2c1-0.4,1.9-0.9,2.7-1.4c-1.5-1.6-2.9-3-4.3-4.1l3-2.8c1.7,1.3,3.4,2.8,5,4.4
		c1.7-1.4,3.4-3.1,5.2-5.2h-12.9c-2.1,2.2-4.4,4.1-6.9,5.8l-3.5-3.8c4.7-2.5,8.5-6.1,11.6-10.9L171.4,70.3z M176.7,96.6v-8l5.3,0.6
		c0.5,0.1,0.9,0.3,0.9,0.7c0,0.4-0.4,1-1.3,1.5v5.2h4.9v4.5h-4.9v11.6c0,2.1-0.8,3.7-2.3,4.8c-1.3,1.1-4.5,1.7-9.5,1.7l-1.9-4.9h5.6
		c2,0,3-0.8,3.2-2.4v-10.7h-19.7v-4.5H176.7z M171.7,109.4l-3.6,3.2c-2.4-3.1-4.7-5.7-6.9-7.5l3.4-3.2
		C167.1,104,169.4,106.5,171.7,109.4z"/>
	<path class="st0" d="M198.8,80.7V69.2l4.3,0.4c0.8,0.1,1.3,0.3,1.3,0.7c0,0.2-0.3,0.6-0.9,1.1v9.2h4.5V85h-4.5v0.2
		c1.9,5.2,4.1,9.3,6.9,12.6l-3.2,3.5c-1.4-2.4-2.6-5-3.7-7.7v26.6h-4.7V96.4c-1.1,3.7-2.3,7.1-3.6,10.2l-4.3-2.8
		c1.8-2.8,3.4-5.8,4.7-9.1c0.9-2.1,2-5.3,3.2-9.5V85h-6.4v-4.3H198.8z M228.1,69.6c0.8,0.1,1.2,0.3,1.2,0.7c0,0.2-0.3,0.6-0.9,1.1
		v6.4h3.6l2.5-6.7l3.7,0.8c0.7,0.1,1,0.4,1,0.7c0,0.4-0.4,0.8-1.1,1.3l-1.5,3.9h5.4v11.6h-4.7v-7.8h-22.4v7.8h-4.7V77.9h5.6
		c-0.5-1.8-1.4-3.7-2.4-5.8l3.8-1c1.5,2.5,2.6,4.8,3.4,6.9h3.1v-8.6L228.1,69.6z M239.4,98.5v21.2h-4.7v-2.1h-17.4v2h-4.7V98.5
		H239.4z M223.9,106.2v-3.8h-6.7v3.8H223.9z M223.9,113.7v-3.8h-6.7v3.8H223.9z M234.7,85v10.7h-17V85H234.7z M230.2,88.4h-8v3.8h8
		V88.4z M228.4,106.2h6.3v-3.8h-6.3V106.2z M234.7,113.7v-3.8h-6.3v3.8H234.7z"/>
	<path class="st0" d="M269.7,102.1v-4.7l4.4,0.4c0.8,0.1,1.2,0.3,1.2,0.7c0,0.2-0.3,0.6-0.9,1v2.6h21.9v4.3h-20
		c2.5,1.5,5,2.7,7.6,3.7c3,1.2,7.2,2.3,12.6,3.4l-4.9,4.5c-4.5-1.4-8-2.9-10.7-4.3c-2.3-1.2-4.5-2.5-6.5-4.2v7.8h-4.7v-7.8
		c-2.5,1.9-4.9,3.5-7.4,4.7c-3,1.4-6.5,2.6-10.7,3.7l-4.1-4.1c5.1-1.1,9.4-2.4,13.1-4c2.1-0.8,4.3-2,6.7-3.6h-20.1v-4.3H269.7z
		 M274,69.2c0.8,0.1,1.3,0.3,1.3,0.7c0,0.3-0.3,0.8-0.9,1.3v2.4h21.1v12.2h-4.9v-8.1h-19.7l1.7,0.8c0.4,0.1,0.6,0.3,0.6,0.5
		c0,0.3-0.4,0.6-1.1,0.9c-0.5,0.9-1,1.7-1.5,2.4h17.2V86h-5c-0.9,2.1-2,3.8-3.2,5.2c0.2,0.1,0.3,0.2,0.5,0.2c3.6,1.3,7,2.9,10.2,4.5
		l-3.4,3.4c-4-2.1-7.5-3.7-10.7-4.9c-0.2-0.1-0.3-0.1-0.4-0.2c-2.1,1.3-4.5,2.3-7.3,3c-3.5,0.9-8.1,1.5-14,1.8l-1.9-4.1
		c5.5,0,9.7-0.3,12.5-0.9c2-0.4,3.8-0.9,5.4-1.5c-2.1-0.5-4.3-1-6.7-1.5c-0.7,0.8-1.4,1.6-2,2.3l-4.1-1.5c2-2,3.7-4,5.1-5.8h-6.9
		v-3.8h9.6c1-1.5,1.9-3,2.8-4.5h-15v8.1h-4.9V73.6h21.1v-4.7L274,69.2z M278.2,86h-10.3c-0.4,0.6-0.9,1.2-1.3,1.7
		c3.1,0.7,6,1.3,8.7,2.1C276.3,88.8,277.3,87.5,278.2,86z"/>
	<path class="st0" d="M309,77.4v-8.4l5.2,0.6c0.5,0.1,0.9,0.3,0.9,0.7c0,0.4-0.4,0.8-1.3,1.3v5.8h6.4v4.5c1-1.2,1.9-2.4,2.5-3.6
		c1.4-2.3,2.8-5.3,4-9.2l4.8,1.5c0.4,0.2,0.7,0.5,0.7,0.8c0,0.2-0.6,0.5-1.7,0.8c-0.3,0.9-0.6,1.8-0.9,2.6h20.2v4.3h-22.1
		c-0.4,0.8-0.8,1.6-1.2,2.3c-0.6,1-1.2,1.9-1.8,2.7l3.6,0.5c0.7,0.1,1,0.3,1,0.8c0,0.4-0.3,0.9-0.9,1.4c-0.5,0.3-0.8,0.9-0.8,1.6V92
		l5.4-2v-9.2l4.2,0.3c0.8,0.1,1.2,0.2,1.2,0.5c0,0.3-0.3,0.7-0.8,1.3v5.4l4.8-1.8c1.3-1.6,2.1-2.5,2.5-2.5c0.2,0,0.5,0.2,0.8,0.5
		l2.4,1.9c0.4,0.2,0.6,0.5,0.6,0.8c0,0.4-0.3,0.8-0.9,1.3l-0.2,10.8c0,2.9-0.5,4.9-1.5,6c-0.8,0.9-2.4,1.5-4.7,2.1l-2.1-5.2
		c1.8-0.1,2.9-0.4,3.2-1c0.3-0.6,0.5-1.6,0.5-3l0.1-7.8l-5.5,2.1v17.3h-4.5V94.3l-5.4,2.1v15c0,1.3,0.2,2.2,0.7,2.9
		c0.4,0.5,1.4,0.8,2.8,0.8h12.2c1,0,1.7-0.3,2.2-0.9c0.5-0.5,0.9-2.1,1.3-4.9l4.3,1.9c-0.6,3.6-1.3,5.9-2,7
		c-0.7,0.9-1.5,1.4-2.5,1.4h-17.4c-2,0-3.5-0.7-4.6-2c-0.9-1.2-1.4-2.9-1.4-5.1V98.1l-4.3,1.7l-1.1-4.1l5.4-2v-7.5
		c-0.5,0.6-1,1.2-1.5,1.7l-4.5-2.8c1-1,2-2,2.8-3h-6.2v10.9c2-1.3,4.1-2.6,6-4.1v4.7l-6,4.2v15.7c0,2.1-0.6,3.7-1.8,4.7
		c-1,1-3.5,1.5-7.5,1.5l-1.9-4.7h4.1c1.4,0,2.2-0.8,2.3-2.4v-11.5l-3.8,2.7c-0.5,1.2-1,1.8-1.5,1.8c-0.3,0-0.6-0.3-0.8-0.9l-1.8-4.9
		c2.6-1.2,5.3-2.6,7.9-4.1V82.2h-7.5v-4.7H309z"/>
	<path class="st0" d="M378,74.8c-0.1-1.7-0.1-3.5-0.1-5.4l5.6,0.2c0.7,0.1,1,0.3,1,0.7c0,0.5-0.5,1.3-1.5,2.1v2.4h18.5v24.5h-4.9
		v-1.9h-11.9c0.6,2.5,1.4,4.7,2.5,6.6c1.9-1.3,3.8-2.8,6-4.7l4.1,2.8c0.3,0.2,0.6,0.4,0.6,0.7s-0.4,0.4-1.3,0.7
		c-2.6,2-4.9,3.5-6.7,4.7c0.3,0.4,0.7,0.8,1,1.2c2.7,2.8,5.3,4.2,7.6,4.2c1.6,0,3-1.8,4.3-5.6l4.5,3.2c-2.3,5.3-5.1,8-8.4,8
		c-3.3,0-6.9-1.7-10.6-4.9c-1.2-1.1-2.1-2.3-3-3.5c-3.6,1.8-7,3.1-10,3.9c-4.2,1.2-9.5,2-15.7,2.5l-2.4-4.9
		c5.7-0.2,10.5-0.7,14.6-1.7c3.7-0.8,7.4-2.1,10.8-4c-1.2-2.3-2.1-4.8-2.8-7.5c-0.2-0.5-0.3-1.1-0.4-1.7h-12.8v6.2h-5V74.8H378z
		 M378.3,84.1c-0.1-1.7-0.2-3.4-0.2-5.2h-11.3v5.2H378.3z M379,93.3c-0.2-1.6-0.4-3.4-0.5-5.4h-11.7v5.4H379z M383.4,84.1h13.3v-5.2
		h-13.5C383.2,80.8,383.3,82.5,383.4,84.1z M384,93.3h12.7v-5.4h-13.1C383.6,90.1,383.8,91.9,384,93.3z"/>
	<path class="st0" d="M434.5,99.3v-6.7l4.8,0.4c0.9,0.1,1.4,0.3,1.4,0.7c0,0.3-0.4,0.7-1.1,1.3v4.3h15.9v4.5h-15.9v8.9h21.5v4.5
		h-48.3v-4.5h21.7v-8.9h-16.1v-4.5H434.5z M459,72.5V77h-20.8c-0.2,0.2-0.4,0.3-0.7,0.4l-6.2,9.8c6-0.3,11.9-0.8,17.7-1.4
		c-1.3-1.5-2.7-3-4.1-4.3l3.5-2.8c3.8,3.3,7.7,7.5,11.5,12.7l-4.5,3c-1-1.6-2.1-3.1-3.1-4.6c-7.3,0.9-18.2,1.9-32.7,3.2
		c-0.4,0.8-0.7,1.1-1,1.1c-0.4,0-0.7-0.3-0.7-0.9l-1.3-5.2c3-0.1,6-0.3,9.1-0.5l6-10.7h-16.8v-4.5H459z"/>
	<path class="st0" d="M485.6,71.8c0.9,0.1,1.3,0.3,1.3,0.7c0,0.3-0.3,0.7-0.9,1.3v14.8h7.1v4.7h-7.1v15.6c2.4-0.3,4.7-0.8,7.1-1.2
		v4.5c-5.1,1.1-13,2.5-23.9,4.3c-0.3,0.7-0.7,1-1,1c-0.4,0-0.6-0.3-0.7-0.9l-1.3-5.3c1.4-0.1,2.9-0.2,4.3-0.4V83.6l4.5,0.4
		c0.8,0.1,1.3,0.3,1.3,0.7c0,0.3-0.3,0.7-0.8,1.3v24.4c1.9-0.2,3.7-0.4,5.6-0.7V71.4L485.6,71.8z M502.6,71.5c0.7,0.1,1,0.3,1,0.8
		c0,0.5-0.4,1-1,1.5c-0.6,0.4-0.9,1-0.9,1.9V88c4-2.1,7.5-4.3,10.6-6.5l3.7,3.7c0.2,0.3,0.4,0.5,0.4,0.8c0,0.4-0.6,0.7-1.7,0.7
		c-4.1,2.2-8.4,4.3-12.9,6.4v14.9c0,1.5,0.2,2.6,0.7,3.4c0.5,0.7,1.5,0.9,3.2,0.9h1.5c1.5,0,2.7-0.4,3.5-1.3c0.8-0.7,1.5-3,2-6.7
		l4.7,2.1c-0.8,4.6-1.8,7.5-3,8.7c-1,1.2-2.3,1.8-3.8,1.8h-7.1c-2.2,0-3.9-0.7-5.1-2.1c-1.1-1.3-1.6-3.2-1.6-5.7V70.8L502.6,71.5z"
		/>
	<path class="st0" d="M570.3,75.7h-40.6v37.1h41.9v4.5h-41.9v2h-4.9V71.2h45.5V75.7z M548.8,95v15.3h-15.3V95H548.8z M544.3,99.1
		H538v7.1h6.3V99.1z M562.3,78.5v14h-23.6v-14H562.3z M557.8,82.6h-14.6v5.8h14.6V82.6z M568.1,95v15.3h-15.5V95H568.1z M563.6,99.1
		h-6.4v7.1h6.4V99.1z"/>
	<path class="st0" d="M582.1,83.9V69.7l4.3,0.4c0.8,0.1,1.3,0.3,1.3,0.7c0,0.2-0.3,0.6-0.9,1v12h4.7v4.5h-4.7v14.7
		c1.6-0.4,3.3-0.8,4.9-1.4v4.3c-2.7,1-6.9,2.4-12.7,4.1c-0.3,0.7-0.7,1-1,1c-0.4,0-0.6-0.3-0.7-0.8l-1.3-5.2c2-0.3,4-0.6,6-1V88.4
		h-4.7v-4.5H582.1z M608.9,107.5c-3.4,1.2-8.7,2.9-16.1,4.9c-0.3,0.5-0.7,0.8-1,0.8s-0.5-0.2-0.6-0.8l-1.1-4.8
		c6.5-0.9,12.8-2.3,18.9-4.3V107.5z M610.1,78.9c-0.1-3.1-0.1-6.3-0.1-9.8l4.5,0.8c0.6,0.1,0.9,0.3,0.9,0.7c0,0.4-0.2,0.9-0.7,1.5
		c0,2.4,0,4.7,0.1,6.9h11.8v4.5H615c0.3,5.9,0.8,11.2,1.5,15.6c0,0.2,0.1,0.4,0.1,0.6c1.9-3.4,3.6-7.6,5.2-12.4l4.4,1.9
		c0.3,0.2,0.5,0.5,0.5,0.9c0,0.3-0.4,0.6-1.3,0.9c-2.7,6.5-5.2,11.5-7.4,14.8c0.6,2.1,1.3,3.8,2,5.3c0.7,1.3,1.3,1.9,1.8,1.9
		c0.4,0,1-1.9,1.9-5.8l3.8,3.2c-2.1,5.8-4,8.8-5.6,8.8c-1.3,0-2.9-1.5-4.7-4.3c-1-1.5-1.8-3.2-2.5-5.1c-1.2,1.3-2.5,2.6-4,3.8
		c-2.3,1.9-4.9,3.8-7.9,5.7l-3.4-3.5c3.5-1.8,6.3-3.6,8.4-5.4c1.9-1.4,3.7-3.2,5.3-5.3c-0.6-2-1.1-4.2-1.5-6.5
		c-0.7-3.9-1.2-8.9-1.4-15h-17.7v-4.5H610.1z M607.7,87.5v13.9h-14.2V87.5H607.7z M603.4,91.4h-5.6v6.2h5.6V91.4z M625.3,75.5
		l-3.2,3c-1.9-2.1-3.8-3.8-5.6-5.1l3-2.8C621.5,71.9,623.4,73.6,625.3,75.5z"/>
</g>
</svg>
