<?xml version="1.0" encoding="utf-8"?>
<!-- Generator: Adobe Illustrator 19.1.0, SVG Export Plug-In . SVG Version: 6.00 Build 0)  -->
<svg version="1.1" id="圖層_1" xmlns="http://www.w3.org/2000/svg" xmlns:xlink="http://www.w3.org/1999/xlink" x="0px" y="0px"
	 viewBox="175 26 700 300" style="enable-background:new 175 26 700 300;" xml:space="preserve">
<style type="text/css">
	.st0{fill:#EAEAEA;}
</style>
<g>
	<path class="st0" d="M410.4,179.1c-2.2,4.3-4.6,8-7.4,11.1l-4.2-3c2.8-2.8,5.5-6.1,7.8-9.9L410.4,179.1z M414.2,144.7
		c-0.8,1.1-1.5,2.2-2.1,3h32.4v4.4h-4.2v7.5h5.1v4.2h-5.1v7.8h5.5v4.2h-45.8v-4.2h6.5v-7.8h-6v-4.2h6v-6.2c-1.3,1-2.8,2-4.4,2.9
		l-2.4-4.2c2.2-1,4.2-2.4,6.2-4.3c1.5-1.4,3-3.3,4.5-5.6L414.2,144.7z M416.1,152.1h-5.3v7.5h5.3V152.1z M416.1,171.7v-7.8h-5.3v7.8
		H416.1z M420.5,188.8l-5.3,0.4c-0.3-3.9-0.7-7.3-1-10.3l4.4-0.6C419.3,181.5,419.9,185,420.5,188.8z M425.9,152.1h-5.4v7.5h5.4
		V152.1z M425.9,171.7v-7.8h-5.4v7.8H425.9z M432.4,188.4l-5.3,0.4c-0.6-3.9-1.3-7.3-2-10.3l4.4-0.6
		C430.6,181.2,431.5,184.7,432.4,188.4z M435.8,152.1h-5.4v7.5h5.4V152.1z M435.8,171.7v-7.8h-5.4v7.8H435.8z M445.7,187.4l-4.4,3
		c-1.5-3.4-3.5-7.1-6-11.5l3.6-2.2C441.7,180.8,444,184.4,445.7,187.4z"/>
	<path class="st0" d="M475.8,143.4v15.1h20.4v4.6h-20.4v21h23v4.9h-46.4v-4.9h18.2v-40.7H475.8z"/>
	<path class="st0" d="M518.6,144.9c-0.1,0.4-0.2,0.7-0.3,1h13v-3h4.6v3h14.9v3.8H536v2.4h12.3v14.5c1.4,2.3,2.6,4.2,3.5,5.9
		l-3.8,2.6c-0.4-0.9-0.7-1.8-1.1-2.7c-0.7,0.1-1.3,0.1-1.9,0.1v3.2h6.9v3.9h-6.9v5.6c0,1.7-0.4,2.8-1.2,3.5
		c-0.8,0.7-2.2,1.1-4.2,1.1h-4.8l-1-4.6c1.8,0.3,3.3,0.4,4.4,0.4c1.3,0,2-0.4,2-1.2v-4.8h-14.5c2.1,2.1,3.8,3.9,5.1,5.4l-4.4,3
		c-1.2-2.1-2.9-4.4-5.1-7.1l2.3-1.4h-6.9v-3.9H540v-2.9c-6.7,0.4-14.1,0.8-22.2,1.1l-0.8-3.8c4.8-0.1,9.5-0.2,14.3-0.4V167h-12.1
		v-14.9h12.1v-2.4H518v-2.8c-1,3.2-2.1,5.9-3.2,8.3v34.7h-4.4v-27.1c-1.3,2-2.7,3.9-4.2,5.7l-1.6-5.7c2-2.7,3.8-5.5,5.3-8.4
		c1.5-2.6,3.1-6.4,4.5-11.4L518.6,144.9z M531.3,158v-2.4h-7.6v2.4H531.3z M531.3,161.2h-7.6v2.4h7.6V161.2z M536,158h7.8v-2.4H536
		V158z M543.8,161.2H536v2.4h7.8V161.2z M536,169.5c3.1-0.1,6.2-0.2,9.2-0.4c-0.2-0.4-0.4-0.7-0.6-1.1l1.7-1H536V169.5z"/>
	<path class="st0" d="M564.1,152.7V143h4.4v9.7h5v4.2h-5v3.3c2,2.2,4,4.6,6,7.2l-2.6,3.8c-1.3-2.2-2.5-4-3.4-5.6V190h-4.4v-23.7
		c-1.3,4.1-3,7.7-4.9,10.8l-1.8-5.1c2.6-4.3,4.7-9.4,6.4-15.1h-5.6v-4.2H564.1z M591.5,142.9v8.8H604v9.3h-3.8v7.5H578V161h-3.8
		v-9.3h12.7v-8.8H591.5z M603.2,190.2h-4.4v-1.7h-19.4v1.7H575v-19.8h28.2V190.2z M584,149.5l-4,2.1c-1.3-2.3-2.7-4.4-4.2-6.3
		l3.8-1.8C581.1,145.3,582.6,147.3,584,149.5z M599.6,158.1v-2.8h-21v2.8H599.6z M586.9,177.9v-3.8h-7.5v3.8H586.9z M586.9,185v-3.8
		h-7.5v3.8H586.9z M595.8,161.8h-13.3v3h13.3V161.8z M590.9,177.9h7.8v-3.8h-7.8V177.9z M598.8,185v-3.8h-7.8v3.8H598.8z M603,145.2
		c-1.1,2.2-2.6,4.2-4.4,6.3l-3.9-2.1c1.9-2.1,3.4-4.1,4.4-6L603,145.2z"/>
	<path class="st0" d="M631.7,172.7v-3.3h4.4v3.3h21.2v3.8h-16.8c2.2,1.9,4.1,3.3,5.9,4.1c2.7,1.4,6.5,2.8,11.3,4.2l-2.2,4.6
		c-5.7-2.2-9.9-4.2-12.6-6.1c-2.2-1.4-4.4-3.6-6.7-6.6v13.6h-4.4v-13.7h-0.1c-1.6,2.3-3.4,4.2-5.3,5.7c-3.1,2.4-7.6,4.6-13.4,7
		l-2.4-4c5.9-2,10.1-3.9,12.6-5.5c1.3-0.9,2.6-1.9,3.8-3.1h-16.4v-3.8H631.7z M632.5,152.1c-0.5,0.9-1,1.7-1.4,2.4h25.4v3.8h-10
		c-1.7,2.3-3.4,4.2-5.3,5.7c4.4,1.1,9.1,2.5,14.1,4l-3,3.8c-4.9-1.8-10.1-3.5-15.7-5c-5.8,2.9-13.3,4.4-22.6,4.5l-2.6-4.2
		c8.5,0,14.7-0.6,18.6-1.9c-3.5-0.8-7.2-1.5-10.9-2.2c1.2-1.4,2.4-3.1,3.7-4.9h-10.4v-3.8h13.1c0.8-1.2,1.7-2.5,2.5-3.8L632.5,152.1
		z M637.1,146.1h19.3v6.9h-4.6v-2.8H617v2.8h-4.6v-6.9h19.4c-0.8-0.9-1.6-1.7-2.4-2.4l5.2-0.8C635.4,143.8,636.2,144.9,637.1,146.1z
		 M628.8,158.3c-0.7,1-1.3,1.9-1.9,2.6c2.8,0.5,5.8,1,8.8,1.7c2.2-1.3,3.9-2.8,5.2-4.3H628.8z"/>
</g>
</svg>
